<?xml version="1.0" encoding="utf-8"?>
<!-- Generator: Adobe Illustrator 16.0.0, SVG Export Plug-In . SVG Version: 6.00 Build 0)  -->
<!DOCTYPE svg PUBLIC "-//W3C//DTD SVG 1.1//EN" "http://www.w3.org/Graphics/SVG/1.1/DTD/svg11.dtd">
<svg version="1.1" id="Layer_1" xmlns="http://www.w3.org/2000/svg" xmlns:xlink="http://www.w3.org/1999/xlink" x="0px" y="0px"
	 width="792px" height="234.73px" viewBox="0 0 792 234.73" enable-background="new 0 0 792 234.73" xml:space="preserve">
<g>
	<path fill="#FFFFFF" d="M0.008,7.772h180.677V62.18h-55.65v165.4H55.706V62.18H0.008V7.772z"/>
	<path fill="#FFFFFF" d="M174.069,7.772h109.135c20.83,0,40.728,1.244,54.096,6.84c29.225,12.436,37.931,42.282,37.931,63.424
		c0,8.395-0.935,27.981-16.789,44.148c-8.705,9.326-18.032,12.747-28.292,16.789l53.474,88.606h-77.102l-42.592-77.416h-20.52
		v77.416h-69.341L174.069,7.772L174.069,7.772z M243.41,53.786v51.299h28.913c11.502,0,33.577-0.622,33.577-25.494
		c0-25.183-21.762-25.805-33.888-25.805H243.41z"/>
	<path fill="#FFFFFF" d="M593.709,115.655c0,55.652-32.646,119.075-118.764,119.075c-89.849,0-116.896-66.533-116.896-116.588
		C358.05,55.341,396.91,0,476.189,0C562.93,0,593.709,63.424,593.709,115.655z M427.689,117.832c0,38.241,15.545,61.246,48.5,61.246
		c27.98,0,47.566-22.072,47.566-63.423c0-10.57-0.934-20.208-4.041-28.914c-10.572-30.467-37.309-31.4-43.525-31.4
		C451.317,55.341,427.689,72.44,427.689,117.832z"/>
	<path fill="#FFFFFF" d="M626.114,7.772l43.081,73.374l42.464-73.374h80.339l-88.605,127.471v92.338h-69.328v-92.338L545.866,7.772
		H626.114z"/>
</g>
</svg>
