<?xml version="1.0" encoding="utf-8"?>
<!-- Generator: Adobe Illustrator 16.0.0, SVG Export Plug-In . SVG Version: 6.00 Build 0)  -->
<!DOCTYPE svg PUBLIC "-//W3C//DTD SVG 1.1//EN" "http://www.w3.org/Graphics/SVG/1.1/DTD/svg11.dtd">
<svg version="1.1" id="Layer_1" xmlns="http://www.w3.org/2000/svg" xmlns:xlink="http://www.w3.org/1999/xlink" x="0px" y="0px"
	 width="340.934px" height="341.773px" viewBox="0 0 340.934 341.773" enable-background="new 0 0 340.934 341.773"
	 xml:space="preserve">
<path fill="#FFFFFF" d="M-368.496,341.215V183.563h-52.452v-65.119h52.452V85.709c0-46.975,35.24-85.149,78.58-85.149h52.442v64.863
	h-52.442c-6.166,0-13.108,8.425-13.108,19.667v33.354h65.531v65.119h-65.531v157.651H-368.496z"/>
<path fill="#29292B" d="M339.493,66.052c-12.438,5.508-25.8,9.235-39.825,10.914c14.303-8.579,25.308-22.175,30.479-38.371
	c-13.392,7.955-28.235,13.718-44.032,16.831c-12.654-13.473-30.683-21.898-50.636-21.898c-38.301,0-69.341,31.052-69.341,69.352
	c0,5.436,0.604,10.729,1.781,15.797c-57.628-2.887-108.736-30.499-142.94-72.453c-5.979,10.238-9.388,22.155-9.388,34.87
	c0,24.059,12.245,45.282,30.847,57.731c-11.374-0.369-22.062-3.491-31.41-8.683c0,0.287,0,0.583,0,0.87
	c0,33.611,23.895,61.632,55.622,68.01c-5.815,1.577-11.948,2.428-18.274,2.428c-4.464,0-8.815-0.431-13.043-1.239
	c8.835,27.55,34.44,47.605,64.795,48.159c-23.752,18.602-53.646,29.688-86.141,29.688c-5.6,0-11.119-0.328-16.544-0.962
	c30.693,19.677,67.15,31.153,106.31,31.153c127.583,0,197.334-105.686,197.334-197.334c0-3-0.072-5.989-0.205-8.969
	C318.434,92.168,330.197,79.955,339.493,66.052z"/>
</svg>
